#!OML:ASF F:\VICON\USERDATA\INSTALL\rory3\rory3.ASF
:FULLY-SPECIFIED
:DEGREES
421
root 13.4922 17.3045 16.0944 -0.802793 20.2939 5.21371
lowerback 5.5655 0.063803 -8.69782
upperback -1.25633 -0.443396 2.32815
thorax -4.37593 0.042075 7.41055
lowerneck -4.91289 -11.1964 -20.2215
upperneck 14.8502 -15.924 16.3624
head 8.38674 -7.71656 7.07857
rclavicle 4.98453e-014 -3.97569e-014
rhumerus -26.4386 -14.3689 -47.6742
rradius 92.575
rwrist -24.9559
rhand -22.6598 25.3932
rfingers 7.12502
rthumb 3.77164 -4.5532
lclavicle 4.98453e-014 -3.97569e-014
lhumerus -47.8843 37.0295 37.5744
lradius 26.8532
lwrist -7.73034
lhand -12.7443 44.2979
lfingers 7.12502
lthumb 13.3397 73.8509
rfemur -16.5312 3.8412 6.2515
rtibia 60.8044
rfoot -9.64963 -14.9234
rtoes 24.1457
lfemur -8.85936 -0.280135 -24.8046
ltibia 34.3068
lfoot -18.7095 1.52445
ltoes 2.00884
422
root 13.5627 17.2976 16.1461 -0.74241 20.9975 5.35966
lowerback 5.5489 0.104367 -8.95439
upperback -1.14364 -0.408089 2.19949
thorax -4.2546 0.0539492 7.41505
lowerneck -5.01214 -11.5341 -19.7737
upperneck 15.033 -16.3557 15.8596
head 8.46447 -7.92059 6.7541
rclavicle 2.85256e-014 -2.54444e-014
rhumerus -27.9234 -13.6621 -47.8613
rradius 93.13
rwrist -25.0241
rhand -23.3284 25.431
rfingers 7.12502
rthumb 3.12596 -4.52584
lclavicle 2.85256e-014 -2.54444e-014
lhumerus -48.3758 36.3263 37.7351
lradius 26.7491
lwrist -6.71979
lhand -12.3222 42.3274
lfingers 7.12502
lthumb 13.7465 71.8533
rfemur -17.1301 3.0637 6.22513
rtibia 61.7997
rfoot -9.46437 -13.4691
rtoes 23.9772
lfemur -8.68879 -0.67184 -25.1741
ltibia 34.4171
lfoot -18.8963 1.48104
ltoes 1.73417
423
root 13.6248 17.2935 16.2015 -0.840675 21.5727 5.204
lowerback 5.8493 0.119218 -8.99341
upperback -1.16516 -0.419886 2.19242
thorax -4.44579 0.0597102 7.43597
lowerneck -3.39675 -11.0872 -20.2914
upperneck 13.4327 -16.0174 17.1991
head 7.75069 -7.79636 7.43408
rclavicle 3.15571e-014 5.56597e-015
rhumerus -29.2897 -13.2868 -48.3219
rradius 93.2892
rwrist -24.4583
rhand -23.4419 25.5541
rfingers 7.12502
rthumb 3.01634 -4.40431
lclavicle 3.15571e-014 5.56597e-015
lhumerus -48.8579 33.9233 39.1803
lradius 27.5606
lwrist -3.61053
lhand -15.2344 49.087
lfingers 7.12502
lthumb 10.9387 78.7821
rfemur -17.6927 2.51643 6.63881
rtibia 62.6593
rfoot -10.0005 -12.441
rtoes 24.5994
lfemur -8.42733 -1.00028 -25.1773
ltibia 34.4701
lfoot -19.0414 1.35247
ltoes 2.1771
424
root 13.6852 17.2901 16.243 -0.906585 22.0784 4.90622
lowerback 6.15809 0.106117 -8.86154
upperback -1.1815 -0.454354 2.23062
thorax -4.63168 0.0497988 7.40973
lowerneck -3.82396 -11.4253 -20.2068
upperneck 13.9768 -16.4138 16.764
head 8.03783 -7.97982 7.18466
rclavicle -1.79155e-014 4.77083e-015
rhumerus -30.5625 -13.0041 -48.9099
rradius 93.2125
rwrist -23.7112
rhand -23.2474 25.8688
rfingers 7.12502
rthumb 3.20419 -4.08689
lclavicle -1.79155e-014 4.77083e-015
lhumerus -49.5826 31.5937 40.6227
lradius 28.6201
lwrist -0.482878
lhand -8.28339 36.4441
lfingers 7.12502
lthumb 17.6361 65.6643
rfemur -18.4612 1.99277 7.22364
rtibia 63.4369
rfoot -10.1493 -11.5988
rtoes 24.3622
lfemur -8.33493 -1.18124 -25.0072
ltibia 34.5806
lfoot -19.2088 1.04716
ltoes 2.84374
425
root 13.7449 17.2905 16.2828 -0.891333 22.6071 4.55284
lowerback 6.1724 0.10828 -8.71442
upperback -1.01045 -0.431199 2.32928
thorax -4.46238 0.0437077 7.42707
lowerneck -4.89532 -12.0732 -19.9446
upperneck 15.0333 -17.1124 15.8321
head 8.60626 -8.29143 6.64545
rclavicle 7.35503e-015 1.66979e-014
rhumerus -31.648 -13.089 -49.5082
rradius 92.9935
rwrist -22.8404
rhand -22.8406 26.0497
rfingers 7.12502
rthumb 3.59702 -3.8997
lclavicle 7.35503e-015 1.66979e-014
lhumerus -50.4764 31.7418 40.3691
lradius 28.4032
lwrist -0.351945
lhand -7.74842 35.8858
lfingers 7.12502
lthumb 18.1509 65.0589
rfemur -19.4111 1.46953 7.86497
rtibia 64.1228
rfoot -9.67974 -10.8187
rtoes 23.2501
lfemur -8.40372 -1.23982 -24.7728
ltibia 34.7192
lfoot -19.4367 0.921757
ltoes 1.4581
426
root 13.8107 17.2859 16.3329 -0.954426 23.3276 4.38611
lowerback 6.14661 0.0570102 -8.7457
upperback -0.750485 -0.489396 2.38192
thorax -4.1607 -0.00895348 7.50352
lowerneck -4.89836 -12.2204 -20.0485
upperneck 14.7298 -17.3123 16.0527
head 8.57728 -8.37716 6.69997
rclavicle 2.60905e-015 2.78299e-014
rhumerus -32.5902 -13.3857 -50.199
rradius 92.5661
rwrist -21.8014
rhand -22.3345 26.1577
rfingers 7.12502
rthumb 4.08576 -3.78291
lclavicle 2.60905e-015 2.78299e-014
lhumerus -51.5805 33.0637 39.1129
lradius 27.4866
lwrist -1.69583
lhand -7.49035 34.9229
lfingers 7.12502
lthumb 18.3992 64.0727
rfemur -20.0097 0.656137 8.25979
rtibia 64.7289
rfoot -9.96143 -10.0819
rtoes 24.0705
lfemur -8.21913 -1.38471 -24.7588
ltibia 34.8598
lfoot -19.7358 0.858702
ltoes -0.104412
427
root 13.8825 17.2737 16.3718 -0.951191 24.0494 4.44607
lowerback 6.35403 -0.015948 -8.81553
upperback -0.64175 -0.608623 2.34825
thorax -4.13975 -0.0723077 7.52093
lowerneck -3.5809 -11.86 -20.5752
upperneck 13.145 -17.0294 17.3226
head 7.93797 -8.27241 7.33773
rclavicle 2.01145e-014 -1.59028e-015
rhumerus -33.4894 -13.4422 -50.8957
rradius 91.8114
rwrist -20.6517
rhand -21.8988 26.47
rfingers 7.12502
rthumb 4.50651 -3.46205
lclavicle 2.01145e-014 -1.59028e-015
lhumerus -52.8617 34.1781 37.8944
lradius 26.6587
lwrist -2.67041
lhand -8.46879 35.3346
lfingers 7.12502
lthumb 17.4577 64.5706
rfemur -20.5863 -0.306964 8.34076
rtibia 65.2826
rfoot -10.2216 -9.35378
rtoes 23.9883
lfemur -7.99306 -1.64779 -25.0304
ltibia 34.9778
lfoot -19.9656 0.678759
ltoes 0.255019
428
root 13.9497 17.2608 16.4048 -0.752244 24.5135 4.54527
lowerback 6.64846 0.0242916 -8.86648
upperback -0.772296 -0.593438 2.26336
thorax -4.4484 -0.0437164 7.46483
lowerneck -2.55828 -11.6869 -20.7859
upperneck 12.3114 -16.9458 17.8792
head 7.54297 -8.27257 7.63165
rclavicle 4.16578e-014 9.54166e-015
rhumerus -34.6696 -13.2975 -51.488
rradius 90.846
rwrist -19.6318
rhand -21.4745 26.7591
rfingers 7.12502
rthumb 4.9162 -3.16386
lclavicle 4.16578e-014 9.54166e-015
lhumerus -54.2238 34.9956 36.5836
lradius 25.8971
lwrist -3.19514
lhand -9.21037 36.1417
lfingers 7.12502
lthumb 16.7439 65.4396
rfemur -21.559 -1.03457 8.41127
rtibia 65.7809
rfoot -10.2704 -8.79445
rtoes 23.2965
lfemur -8.01918 -1.8888 -25.3397
ltibia 35.0766
lfoot -20.1376 0.45882
ltoes 1.76402
